<svg xmlns="http://www.w3.org/2000/svg" viewBox="0 8.859999656677246 123.58000183105469 37.0099983215332" data-asc="0.9052734375" width="123.58000183105469" height="37.0099983215332"><defs/><g fill="#000000"><g transform="translate(0, 0)"><path d="M0 45.26L0 9.47L4.74 9.47L4.74 45.26L0 45.26ZM11.47 33.76L15.94 33.37Q16.26 36.06 17.42 37.78Q18.58 39.50 21.02 40.56Q23.46 41.63 26.51 41.63Q29.22 41.63 31.30 40.82Q33.37 40.01 34.39 38.61Q35.40 37.21 35.40 35.55Q35.40 33.86 34.42 32.60Q33.45 31.35 31.20 30.49Q29.76 29.93 24.83 28.75Q19.90 27.56 17.92 26.51Q15.36 25.17 14.10 23.18Q12.84 21.19 12.84 18.73Q12.84 16.02 14.38 13.66Q15.92 11.30 18.87 10.08Q21.83 8.86 25.44 8.86Q29.42 8.86 32.46 10.14Q35.50 11.43 37.13 13.92Q38.77 16.41 38.89 19.56L34.35 19.90Q33.98 16.50 31.87 14.77Q29.76 13.04 25.63 13.04Q21.34 13.04 19.37 14.61Q17.41 16.19 17.41 18.41Q17.41 20.34 18.80 21.58Q20.17 22.83 25.94 24.13Q31.71 25.44 33.86 26.42Q36.99 27.86 38.48 30.07Q39.97 32.28 39.97 35.16Q39.97 38.01 38.33 40.54Q36.69 43.07 33.63 44.47Q30.57 45.87 26.73 45.87Q21.88 45.87 18.59 44.46Q15.31 43.04 13.44 40.20Q11.57 37.35 11.47 33.76ZM44.65 35.89L49.27 35.50Q49.78 38.87 51.65 40.56Q53.52 42.26 56.15 42.26Q59.33 42.26 61.52 39.87Q63.72 37.48 63.72 33.52Q63.72 29.76 61.61 27.59Q59.50 25.42 56.08 25.42Q53.96 25.42 52.25 26.38Q50.54 27.34 49.56 28.88L45.43 28.34L48.90 9.96L66.70 9.96L66.70 14.16L52.42 14.16L50.49 23.78Q53.71 21.53 57.25 21.53Q61.94 21.53 65.16 24.78Q68.38 28.03 68.38 33.13Q68.38 37.99 65.55 41.53Q62.11 45.87 56.15 45.87Q51.27 45.87 48.18 43.14Q45.09 40.41 44.65 35.89ZM72.46 27.61Q72.46 21.26 73.77 17.40Q75.07 13.53 77.65 11.43Q80.22 9.33 84.13 9.33Q87.01 9.33 89.18 10.49Q91.36 11.65 92.77 13.83Q94.19 16.02 95.00 19.15Q95.80 22.29 95.80 27.61Q95.80 33.91 94.51 37.78Q93.21 41.65 90.64 43.76Q88.06 45.87 84.13 45.87Q78.96 45.87 76.00 42.16Q72.46 37.70 72.46 27.61M76.98 27.61Q76.98 36.43 79.04 39.34Q81.10 42.26 84.13 42.26Q87.16 42.26 89.22 39.33Q91.28 36.40 91.28 27.61Q91.28 18.77 89.22 15.87Q87.16 12.96 84.08 12.96Q81.05 12.96 79.25 15.53Q76.98 18.80 76.98 27.61ZM114.36 45.26L114.36 36.69L98.83 36.69L98.83 32.67L115.16 9.47L118.75 9.47L118.75 32.67L123.58 32.67L123.58 36.69L118.75 36.69L118.75 45.26L114.36 45.26M114.36 32.67L114.36 16.53L103.15 32.67L114.36 32.67Z"/></g></g></svg>